<?xml version="1.0" encoding="UTF-8"?>
<svg version="1.1" xmlns="http://www.w3.org/2000/svg" width="114" height="121">
<path d="M0 0 C0.64606201 0.13784912 1.29212402 0.27569824 1.95776367 0.41772461 C6.19453254 1.22863013 10.3706095 1.23582525 14.67578125 1.31640625 C16.06351997 1.3475779 16.06351997 1.3475779 17.47929382 1.37937927 C20.42362307 1.4445656 23.36803865 1.50361558 26.3125 1.5625 C28.31315983 1.60571464 30.31381106 1.64932986 32.31445312 1.69335938 C37.20954779 1.8002152 42.10472897 1.90156919 47 2 C47.495 6.455 47.495 6.455 48 11 C53.28 11 58.56 11 64 11 C64.33 8.03 64.66 5.06 65 2 C66.86918091 1.96241577 66.86918091 1.96241577 68.77612305 1.92407227 C73.40740926 1.82977089 78.03855344 1.7296059 82.66967773 1.62768555 C84.67257358 1.58442261 86.67550425 1.54274153 88.6784668 1.50268555 C91.56049079 1.44477338 94.44234088 1.38113953 97.32421875 1.31640625 C98.21711105 1.29969376 99.11000336 1.28298126 100.029953 1.26576233 C104.16205946 1.16770597 107.9462282 0.8649462 112 0 C114.08639807 2.08639807 113.21272995 6.57445021 113.23828125 9.453125 C113.246353 10.30549744 113.25442474 11.15786987 113.26274109 12.03607178 C113.27660034 13.84515335 113.28731422 15.65426128 113.29516602 17.46337891 C113.3123432 20.22479287 113.35620718 22.9849987 113.40039062 25.74609375 C113.41052036 27.50259535 113.41903558 29.25910715 113.42578125 31.015625 C113.44328934 31.83975891 113.46079742 32.66389282 113.47883606 33.51300049 C113.46367166 37.54156387 113.30857805 39.51334282 111.09838867 42.99902344 C109 45 109 45 107 46 C106.98018066 46.68626465 106.96036133 47.3725293 106.93994141 48.07958984 C106.84489055 51.17845779 106.73513153 54.27663294 106.625 57.375 C106.5940625 58.45523438 106.563125 59.53546875 106.53125 60.6484375 C106.49257812 61.6796875 106.45390625 62.7109375 106.4140625 63.7734375 C106.36693115 65.20308838 106.36693115 65.20308838 106.31884766 66.66162109 C106 69 106 69 104 71 C101 71.25 101 71.25 98 71 C96 69 96 69 95.77294922 66.66162109 C95.78342285 65.70852051 95.79389648 64.75541992 95.8046875 63.7734375 C95.81113281 62.7421875 95.81757812 61.7109375 95.82421875 60.6484375 C95.84935547 59.02808594 95.84935547 59.02808594 95.875 57.375 C95.88402344 56.28703125 95.89304687 55.1990625 95.90234375 54.078125 C95.92596591 51.38519848 95.95890444 48.69270745 96 46 C90.98183471 46.97417536 90.98183471 46.97417536 87.21484375 50.1640625 C86.79332031 50.97617188 86.37179688 51.78828125 85.9375 52.625 C83.35072816 56.90179612 83.35072816 56.90179612 79.875 57.875 C76.1193719 56.73198275 75.10813001 55.27123622 73 52 C72.54625 51.0925 72.0925 50.185 71.625 49.25 C70.14396813 46.66566155 70.14396813 46.66566155 66.8984375 46.359375 C65.94195312 46.24078125 64.98546875 46.1221875 64 46 C64.01047363 46.68626465 64.02094727 47.3725293 64.03173828 48.07958984 C64.07321874 51.17802289 64.09930069 54.27639761 64.125 57.375 C64.14175781 58.45523438 64.15851563 59.53546875 64.17578125 60.6484375 C64.18222656 61.6796875 64.18867187 62.7109375 64.1953125 63.7734375 C64.20578613 64.72653809 64.21625977 65.67963867 64.22705078 66.66162109 C64 69 64 69 62 71 C59 71.3125 59 71.3125 56 71 C53.79807776 67.69711664 53.76040032 66.72537273 53.8046875 62.89453125 C53.81113281 61.91162109 53.81757812 60.92871094 53.82421875 59.91601562 C53.84097656 58.89185547 53.85773437 57.86769531 53.875 56.8125 C53.88402344 55.77673828 53.89304688 54.74097656 53.90234375 53.67382812 C53.9259214 51.11565315 53.9588297 48.55794252 54 46 C51.36 46.33 48.72 46.66 46 47 C46.33 47.99 46.66 48.98 47 50 C47.50976619 55.3232961 47.67052598 59.65894804 45.25 64.5 C41.55383236 68.60685294 38.70140139 70.85348632 33.02905273 71.16113281 C29.85049475 71.19825592 26.67218387 71.23106813 23.4934082 71.24023438 C21.44116321 71.2499826 19.38990251 71.28104024 17.33789062 71.3125 C15.40526367 71.32023437 15.40526367 71.32023437 13.43359375 71.328125 C12.24822021 71.3374707 11.06284668 71.34681641 9.84155273 71.35644531 C8.90384033 71.23881836 7.96612793 71.12119141 7 71 C4.76586987 67.64880481 4.76152238 66.5822245 4.8046875 62.67578125 C4.81113281 61.64775391 4.81757812 60.61972656 4.82421875 59.56054688 C4.84097656 58.48869141 4.85773437 57.41683594 4.875 56.3125 C4.88402344 55.22904297 4.89304687 54.14558594 4.90234375 53.02929688 C4.9259266 50.3526429 4.95883874 47.67643203 5 45 C4.071875 44.566875 4.071875 44.566875 3.125 44.125 C1 43 1 43 -1 41 C-1.18776167 37.99864387 -1.25550182 35.09112854 -1.23046875 32.08984375 C-1.23001053 31.20720352 -1.22955231 30.32456329 -1.2290802 29.41517639 C-1.22605687 27.54817359 -1.21816817 25.68117333 -1.20581055 23.81420898 C-1.18755226 20.94571061 -1.18530084 18.07753479 -1.18554688 15.20898438 C-1.18063188 13.39843469 -1.17480364 11.58788721 -1.16796875 9.77734375 C-1.16685593 8.91382797 -1.1657431 8.05031219 -1.16459656 7.16062927 C-1.11604615 1.11604615 -1.11604615 1.11604615 0 0 Z M16 48 C16 52.62 16 57.24 16 62 C18.58396679 62.08112454 21.16537568 62.14054748 23.75 62.1875 C24.47960938 62.21263672 25.20921875 62.23777344 25.9609375 62.26367188 C29.1847611 62.30763311 31.58441708 62.21105862 34.484375 60.73828125 C36.28727698 58.67051995 36.54116907 57.71715869 36.5 55 C36.5103125 54.319375 36.520625 53.63875 36.53125 52.9375 C36.1184076 50.88168436 36.1184076 50.88168436 34.484375 49.26171875 C30.95271891 47.46812612 27.60981097 47.67952065 23.75 47.8125 C22.63238281 47.83280273 22.63238281 47.83280273 21.4921875 47.85351562 C19.66114584 47.88872796 17.83047831 47.94253149 16 48 Z " fill="#050505" transform="translate(1,50)"/>
<path d="M0 0 C0.73997726 -0.00570007 1.47995453 -0.01140015 2.24235535 -0.01727295 C3.81007456 -0.02672518 5.37781366 -0.03325782 6.94555664 -0.03710938 C9.33580582 -0.04679532 11.7251878 -0.07780695 14.11523438 -0.109375 C15.63931782 -0.11590723 17.1634074 -0.12115684 18.6875 -0.125 C19.39912796 -0.1373468 20.11075592 -0.1496936 20.84394836 -0.16241455 C25.26333026 -0.14273279 28.01246685 0.52052064 31.54296875 3.203125 C34.12086807 6.6403241 33.59615351 10.04504344 33.54296875 14.203125 C34.26887207 14.18741455 34.99477539 14.1717041 35.74267578 14.15551758 C39.05102663 14.09292145 42.35925256 14.05405588 45.66796875 14.015625 C46.81007813 13.99048828 47.9521875 13.96535156 49.12890625 13.93945312 C59.89404793 13.84557108 59.89404793 13.84557108 64.54296875 17.203125 C67.574578 21.75053888 66.95088362 26.22650283 66.98046875 31.578125 C67.01333984 32.6196875 67.04621094 33.66125 67.08007812 34.734375 C67.13401962 42.40387425 67.13401962 42.40387425 64.203125 46.3671875 C60.88281497 48.65873774 58.4732357 49.32908799 54.53051758 49.31665039 C53.72991409 49.31657486 52.92931061 49.31649933 52.10444641 49.31642151 C51.2449791 49.31126022 50.38551178 49.30609894 49.5 49.30078125 C48.61640305 49.2993663 47.73280609 49.29795135 46.82243347 49.29649353 C44.00007747 49.29089569 41.17780078 49.27834361 38.35546875 49.265625 C36.44205844 49.26060972 34.52864688 49.25604686 32.61523438 49.25195312 C27.92444861 49.24092697 23.23372212 49.22366383 18.54296875 49.203125 C18.04796875 47.223125 18.04796875 47.223125 17.54296875 45.203125 C11.93296875 44.873125 6.32296875 44.543125 0.54296875 44.203125 C0.54296875 45.853125 0.54296875 47.503125 0.54296875 49.203125 C-5.04375319 49.27748751 -10.63018464 49.33182754 -16.21728516 49.36791992 C-18.11642478 49.38297191 -20.01552984 49.40341816 -21.91455078 49.42944336 C-24.65015206 49.46598492 -27.38529225 49.48288738 -30.12109375 49.49609375 C-30.96507721 49.51157761 -31.80906067 49.52706146 -32.67861938 49.54301453 C-37.68033334 49.54443055 -41.14860056 49.03278308 -45.45703125 46.203125 C-48.4886405 41.65571112 -47.86494612 37.17974717 -47.89453125 31.828125 C-47.94383789 30.26578125 -47.94383789 30.26578125 -47.99414062 28.671875 C-48.04808212 21.00237575 -48.04808212 21.00237575 -45.1171875 17.0390625 C-41.17938082 14.32133983 -38.36773398 14.08175087 -33.6953125 14.10546875 C-32.57705078 14.10869141 -31.45878906 14.11191406 -30.30664062 14.11523438 C-29.13939453 14.12361328 -27.97214844 14.13199219 -26.76953125 14.140625 C-25.59068359 14.14513672 -24.41183594 14.14964844 -23.19726562 14.15429688 C-20.28380336 14.16609227 -17.37044262 14.1825523 -14.45703125 14.203125 C-14.50601563 12.94371094 -14.555 11.68429687 -14.60546875 10.38671875 C-14.74850452 6.70919383 -14.58314579 6.35910877 -12.08203125 3.265625 C-7.97253123 0.03673213 -5.0649319 0.02999209 0 0 Z M-4.45703125 11.203125 C-4.45703125 12.193125 -4.45703125 13.183125 -4.45703125 14.203125 C4.78296875 14.203125 14.02296875 14.203125 23.54296875 14.203125 C23.54296875 13.213125 23.54296875 12.223125 23.54296875 11.203125 C14.30296875 11.203125 5.06296875 11.203125 -4.45703125 11.203125 Z " fill="#060606" transform="translate(47.45703125,-0.203125)"/>
<path d="M0 0 C4.34482759 1.34482759 4.34482759 1.34482759 6 3 C7.3332205 15.87013958 7.19888042 29.08712685 6.6875 42 C6.65285645 42.97791504 6.61821289 43.95583008 6.58251953 44.96337891 C6.53853027 45.86233887 6.49454102 46.76129883 6.44921875 47.6875 C6.41143311 48.47511719 6.37364746 49.26273438 6.3347168 50.07421875 C6 52 6 52 4 54 C1 54.25 1 54.25 -2 54 C-4 52 -4 52 -4.22705078 49.66162109 C-4.21657715 48.70852051 -4.20610352 47.75541992 -4.1953125 46.7734375 C-4.18886719 45.7421875 -4.18242188 44.7109375 -4.17578125 43.6484375 C-4.15902344 42.56820312 -4.14226562 41.48796875 -4.125 40.375 C-4.11597656 39.28703125 -4.10695312 38.1990625 -4.09765625 37.078125 C-4.07403409 34.38519848 -4.04109556 31.69270745 -4 29 C-9.01816529 29.97417536 -9.01816529 29.97417536 -12.78515625 33.1640625 C-13.20667969 33.97617188 -13.62820312 34.78828125 -14.0625 35.625 C-16.64927184 39.90179612 -16.64927184 39.90179612 -20.125 40.875 C-23.8806281 39.73198275 -24.89186999 38.27123622 -27 35 C-27.45375 34.0925 -27.9075 33.185 -28.375 32.25 C-29.85603187 29.66566155 -29.85603187 29.66566155 -33.1015625 29.359375 C-34.05804688 29.24078125 -35.01453125 29.1221875 -36 29 C-35.98952637 29.68626465 -35.97905273 30.3725293 -35.96826172 31.07958984 C-35.92678126 34.17802289 -35.90069931 37.27639761 -35.875 40.375 C-35.85824219 41.45523438 -35.84148437 42.53546875 -35.82421875 43.6484375 C-35.81777344 44.6796875 -35.81132813 45.7109375 -35.8046875 46.7734375 C-35.79421387 47.72653809 -35.78374023 48.67963867 -35.77294922 49.66162109 C-36 52 -36 52 -38 54 C-41 54.3125 -41 54.3125 -44 54 C-46.11927289 50.82109067 -46.25171823 50.03307011 -46.25878906 46.39257812 C-46.26509338 45.46151245 -46.27139771 44.53044678 -46.27789307 43.57116699 C-46.2738446 42.56799438 -46.26979614 41.56482178 -46.265625 40.53125 C-46.26753845 39.49939575 -46.2694519 38.4675415 -46.27142334 37.40441895 C-46.27278467 35.22224687 -46.26909187 33.04006668 -46.26074219 30.85791016 C-46.25004211 27.51316173 -46.26063941 24.16895043 -46.2734375 20.82421875 C-46.2721159 18.70572798 -46.26955349 16.58723754 -46.265625 14.46875 C-46.27169769 12.96399109 -46.27169769 12.96399109 -46.27789307 11.42883301 C-46.27158875 10.49776733 -46.26528442 9.56670166 -46.25878906 8.60742188 C-46.25719788 7.78818237 -46.25560669 6.96894287 -46.25396729 6.12487793 C-46 4 -46 4 -44 1 C-40.63647461 0.48876953 -40.63647461 0.48876953 -37 1 C-34.73657227 3.17138672 -34.73657227 3.17138672 -32.81640625 6.1796875 C-32.11708984 7.25347656 -31.41777344 8.32726562 -30.69726562 9.43359375 C-29.98555255 10.58065191 -29.27396546 11.72778824 -28.5625 12.875 C-27.82571535 14.01571295 -27.08680347 15.15505491 -26.34570312 16.29296875 C-21 24.62847222 -21 24.62847222 -21 27 C-18.08095199 24.24053458 -15.82965749 21.4570342 -13.65234375 18.0859375 C-13.04712891 17.16039063 -12.44191406 16.23484375 -11.81835938 15.28125 C-10.55973637 13.3364618 -9.3019297 11.39114505 -8.04492188 9.4453125 C-7.44099609 8.52234375 -6.83707031 7.599375 -6.21484375 6.6484375 C-5.66948975 5.80458496 -5.12413574 4.96073242 -4.56225586 4.09130859 C-3 2 -3 2 0 0 Z " fill="#EDEDED" transform="translate(101,67)"/>
<path d="M0 0 C1.48306641 -0.0009668 1.48306641 -0.0009668 2.99609375 -0.00195312 C4.02347656 0.01802734 5.05085938 0.03800781 6.109375 0.05859375 C7.12128906 0.05150391 8.13320313 0.04441406 9.17578125 0.03710938 C15.41750164 0.08973088 20.2096796 0.79378511 25.859375 3.49609375 C29.06900074 6.86620077 30.10749706 9.50594812 30.296875 14.05859375 C30.12729425 17.93286158 29.23501232 20.36025249 26.859375 23.49609375 C26.529375 24.15609375 26.199375 24.81609375 25.859375 25.49609375 C27.179375 26.81609375 28.499375 28.13609375 29.859375 29.49609375 C17.319375 29.49609375 4.779375 29.49609375 -8.140625 29.49609375 C-8.140625 36.75609375 -8.140625 44.01609375 -8.140625 51.49609375 C-8.470625 51.49609375 -8.800625 51.49609375 -9.140625 51.49609375 C-9.24202064 44.87594683 -9.31208836 38.25600003 -9.36035156 31.63525391 C-9.38047056 29.38289914 -9.40776908 27.13059662 -9.44238281 24.87841797 C-9.49088709 21.64147044 -9.51359105 18.40521328 -9.53125 15.16796875 C-9.55189514 14.16054626 -9.57254028 13.15312378 -9.59381104 12.11517334 C-9.59603174 5.20094274 -9.59603174 5.20094274 -7.4375 1.86010742 C-4.73047927 0.25252613 -3.13798402 -0.00652093 0 0 Z " fill="#F1F1F1" transform="translate(15.140625,66.50390625)"/>
<path d="M0 0 C0 0.33 0 0.66 0 1 C-2.64 1.33 -5.28 1.66 -8 2 C-7.505 3.485 -7.505 3.485 -7 5 C-6.49023381 10.3232961 -6.32947402 14.65894804 -8.75 19.5 C-11.68385128 22.75983476 -13.83285829 24.61095276 -18 26 C-20.19890365 26.09526066 -22.40059737 26.13073135 -24.6015625 26.1328125 C-25.89578125 26.13410156 -27.19 26.13539062 -28.5234375 26.13671875 C-29.53229004 26.13357666 -29.53229004 26.13357666 -30.56152344 26.13037109 C-32.62442315 26.1250015 -34.68710689 26.1303336 -36.75 26.13671875 C-38.04164062 26.13542969 -39.33328125 26.13414063 -40.6640625 26.1328125 C-41.85467285 26.13168457 -43.0452832 26.13055664 -44.27197266 26.12939453 C-47 26 -47 26 -48 25 C-48.08726223 23.21928754 -48.10699041 21.4351686 -48.09765625 19.65234375 C-48.09443359 18.57275391 -48.09121094 17.49316406 -48.08789062 16.38085938 C-48.07951172 15.24455078 -48.07113281 14.10824219 -48.0625 12.9375 C-48.05798828 11.79732422 -48.05347656 10.65714844 -48.04882812 9.48242188 C-48.03699747 6.65489649 -48.0205141 3.8274736 -48 1 C-42.77136759 0.85584647 -37.54269004 0.7135015 -32.31396484 0.57275391 C-30.5392121 0.52473536 -28.76447211 0.47624261 -26.98974609 0.42724609 C-8.84044984 -0.07321284 -8.84044984 -0.07321284 0 0 Z M-38 3 C-38 7.62 -38 12.24 -38 17 C-35.41603321 17.08112454 -32.83462432 17.14054748 -30.25 17.1875 C-29.52039062 17.21263672 -28.79078125 17.23777344 -28.0390625 17.26367188 C-24.8152389 17.30763311 -22.41558292 17.21105862 -19.515625 15.73828125 C-17.71272302 13.67051995 -17.45883093 12.71715869 -17.5 10 C-17.4896875 9.319375 -17.479375 8.63875 -17.46875 7.9375 C-17.8815924 5.88168436 -17.8815924 5.88168436 -19.515625 4.26171875 C-23.04728109 2.46812612 -26.39018903 2.67952065 -30.25 2.8125 C-31.36761719 2.83280273 -31.36761719 2.83280273 -32.5078125 2.85351562 C-34.33885416 2.88872796 -36.16952169 2.94253149 -38 3 Z " fill="#0B0B0B" transform="translate(55,95)"/>
<path d="M0 0 C4.34482759 1.34482759 4.34482759 1.34482759 6 3 C7.3332205 15.87013958 7.19888042 29.08712685 6.6875 42 C6.65285645 42.97791504 6.61821289 43.95583008 6.58251953 44.96337891 C6.53853027 45.86233887 6.49454102 46.76129883 6.44921875 47.6875 C6.41143311 48.47511719 6.37364746 49.26273438 6.3347168 50.07421875 C6 52 6 52 4 54 C1 54.25 1 54.25 -2 54 C-4.82879286 51.17120714 -4.3142666 49.20075802 -4.4140625 45.2421875 C-4.43342865 44.57913605 -4.4527948 43.91608459 -4.4727478 43.23294067 C-4.53255954 41.11375823 -4.57893388 38.9945215 -4.625 36.875 C-4.66317845 35.43877831 -4.70223011 34.00257955 -4.7421875 32.56640625 C-4.83826125 29.04448064 -4.92228642 25.52238392 -5 22 C-5.91023926 23.46687256 -5.91023926 23.46687256 -6.83886719 24.96337891 C-9 28 -9 28 -11.578125 28.5859375 C-12.45984375 28.51632813 -13.3415625 28.44671875 -14.25 28.375 C-15.14203125 28.32085937 -16.0340625 28.26671875 -16.953125 28.2109375 C-17.62859375 28.14132813 -18.3040625 28.07171875 -19 28 C-16.8699945 22.19931309 -13.48649025 17.41905775 -10.0625 12.3125 C-9.42892578 11.35021484 -8.79535156 10.38792969 -8.14257812 9.39648438 C-7.52962891 8.47802734 -6.91667969 7.55957031 -6.28515625 6.61328125 C-5.72707275 5.77579346 -5.16898926 4.93830566 -4.59399414 4.07543945 C-3 2 -3 2 0 0 Z " fill="#F7F7F7" transform="translate(101,67)"/>
<path d="M0 0 C3.3 0 6.6 0 10 0 C10.05374281 3.79185383 10.09354937 7.58295298 10.125 11.375 C10.14175781 12.45523438 10.15851563 13.53546875 10.17578125 14.6484375 C10.18222656 15.6796875 10.18867187 16.7109375 10.1953125 17.7734375 C10.20578613 18.72653809 10.21625977 19.67963867 10.22705078 20.66162109 C10 23 10 23 8 25 C5 25.25 5 25.25 2 25 C0 23 0 23 -0.22705078 20.66162109 C-0.21657715 19.70852051 -0.20610352 18.75541992 -0.1953125 17.7734375 C-0.18886719 16.7421875 -0.18242188 15.7109375 -0.17578125 14.6484375 C-0.15902344 13.56820312 -0.14226562 12.48796875 -0.125 11.375 C-0.11597656 10.28703125 -0.10695313 9.1990625 -0.09765625 8.078125 C-0.07403518 5.38532351 -0.03816333 2.69263465 0 0 Z " fill="#0A0A0A" transform="translate(97,96)"/>
<path d="M0 0 C2.97 0 5.94 0 9 0 C9.05786668 3.79160297 9.09355054 7.58309311 9.125 11.375 C9.14175781 12.45523438 9.15851563 13.53546875 9.17578125 14.6484375 C9.18222656 15.6796875 9.18867187 16.7109375 9.1953125 17.7734375 C9.20578613 18.72653809 9.21625977 19.67963867 9.22705078 20.66162109 C9 23 9 23 7 25 C3.9375 25.1875 3.9375 25.1875 1 25 C0 24 0 24 -0.11352539 21.68334961 C-0.10828857 20.68311768 -0.10305176 19.68288574 -0.09765625 18.65234375 C-0.09443359 17.57275391 -0.09121094 16.49316406 -0.08789062 15.38085938 C-0.07951172 14.24455078 -0.07113281 13.10824219 -0.0625 11.9375 C-0.05798828 10.79732422 -0.05347656 9.65714844 -0.04882812 8.48242188 C-0.03699747 5.65489649 -0.0205141 2.8274736 0 0 Z " fill="#0C0C0C" transform="translate(56,96)"/>
<path d="M0 0 C2.43868168 -0.1079859 4.87259133 -0.18726589 7.3125 -0.25 C8.00279297 -0.28351563 8.69308594 -0.31703125 9.40429688 -0.3515625 C14.50628529 -0.45015165 14.50628529 -0.45015165 16.9921875 1.81640625 C18.40458267 4.87659578 17.91952236 6.817038 17 10 C13.93466836 11.53266582 10.73245728 11.10276471 7.375 11.0625 C6.66859375 11.05798828 5.9621875 11.05347656 5.234375 11.04882812 C3.48954725 11.03703875 1.744763 11.01910324 0 11 C0 7.37 0 3.74 0 0 Z " fill="#010101" transform="translate(17,77)"/>
<path d="M0 0 C6.27 0 12.54 0 19 0 C17.28262943 4.29342643 15.94307379 7.48466186 13 11 C10 11.6875 10 11.6875 7 11 C3.57507953 7.6729344 2.18958052 4.37916105 0 0 Z " fill="#101010" transform="translate(71,96)"/>
<path d="M0 0 C0.33 0 0.66 0 1 0 C1 2.97 1 5.94 1 9 C-0.98 9 -2.96 9 -5 9 C-3.35 6.03 -1.7 3.06 0 0 Z " fill="#0D0D0D" transform="translate(96,87)"/>
<path d="M0 0 C2.40072955 2.88087546 4.47291037 5.56404834 6 9 C4.02 9 2.04 9 0 9 C0 6.03 0 3.06 0 0 Z " fill="#0E0E0E" transform="translate(65,87)"/>
</svg>
