<?xml version="1.0" encoding="UTF-8"?>
<svg version="1.1" xmlns="http://www.w3.org/2000/svg" width="114" height="121">
<path d="M0 0 C6.15234375 -0.09765625 6.15234375 -0.09765625 8 0 C8.33 0.33 8.66 0.66 9 1 C11.95529504 1.16029688 14.88982457 1.25957328 17.84765625 1.31640625 C19.17729652 1.3475779 19.17729652 1.3475779 20.53379822 1.37937927 C23.376617 1.444974 26.21953117 1.50380552 29.0625 1.5625 C30.98503606 1.6056758 32.90756234 1.64928978 34.83007812 1.69335938 C39.55328668 1.80066543 44.27659153 1.90190451 49 2 C49 4.97 49 7.94 49 11 C54.28 11 59.56 11 65 11 C65 8.03 65 5.06 65 2 C66.17095215 1.97494385 67.3419043 1.9498877 68.54833984 1.92407227 C72.88325378 1.83006297 77.21800504 1.72982659 81.55273438 1.62768555 C83.43062542 1.58431211 85.30855652 1.54263882 87.18652344 1.50268555 C89.8822844 1.44504124 92.57784327 1.38133019 95.2734375 1.31640625 C96.11619232 1.29969376 96.95894714 1.28298126 97.82723999 1.26576233 C102.0486661 1.26763856 102.0486661 1.26763856 106 0 C108.6723621 -0.13415472 111.32250488 -0.04318541 114 0 C114.09890033 5.90815343 114.17148371 11.81582472 114.21972656 17.72460938 C114.23983805 19.73446038 114.26713115 21.74425291 114.30175781 23.75390625 C114.35029634 26.64337596 114.37297322 29.53207191 114.390625 32.421875 C114.41127014 33.31992859 114.43191528 34.21798218 114.45318604 35.14324951 C114.45542659 41.37692023 114.45542659 41.37692023 112.10058594 44.59863281 C110 46 110 46 108 46 C108.01047363 46.65073486 108.02094727 47.30146973 108.03173828 47.97192383 C108.07329835 50.9187433 108.09932608 53.86550111 108.125 56.8125 C108.14175781 57.83666016 108.15851563 58.86082031 108.17578125 59.91601562 C108.18222656 60.89892578 108.18867187 61.88183594 108.1953125 62.89453125 C108.20578613 63.80050049 108.21625977 64.70646973 108.22705078 65.63989258 C108 68 108 68 106 71 C102.5 71.3125 102.5 71.3125 99 71 C97 69 97 69 96.77294922 66.66162109 C96.78342285 65.70852051 96.79389648 64.75541992 96.8046875 63.7734375 C96.81113281 62.7421875 96.81757812 61.7109375 96.82421875 60.6484375 C96.84935547 59.02808594 96.84935547 59.02808594 96.875 57.375 C96.88402344 56.28703125 96.89304687 55.1990625 96.90234375 54.078125 C96.92596591 51.38519848 96.95890444 48.69270745 97 46 C91.9824157 46.97038664 91.9824157 46.97038664 88.22265625 50.1640625 C87.83980469 50.97617188 87.45695312 51.78828125 87.0625 52.625 C86.66160156 53.44226563 86.26070313 54.25953125 85.84765625 55.1015625 C85.56792969 55.72804687 85.28820312 56.35453125 85 57 C79.88213027 57.88239133 79.88213027 57.88239133 77 57 C75.14160213 54.54112924 73.88759663 52.09031429 72.6171875 49.28515625 C71.13586153 46.66942256 71.13586153 46.66942256 67.8203125 46.18359375 C66.88960938 46.12300781 65.95890625 46.06242187 65 46 C65.01047363 46.68626465 65.02094727 47.3725293 65.03173828 48.07958984 C65.07321874 51.17802289 65.09930069 54.27639761 65.125 57.375 C65.14175781 58.45523438 65.15851563 59.53546875 65.17578125 60.6484375 C65.18222656 61.6796875 65.18867187 62.7109375 65.1953125 63.7734375 C65.20578613 64.72653809 65.21625977 65.67963867 65.22705078 66.66162109 C65 69 65 69 63 71 C59.375 71.125 59.375 71.125 56 71 C54.99994696 67.99984088 54.88424415 66.02576244 54.90234375 62.89453125 C54.90556641 61.91162109 54.90878906 60.92871094 54.91210938 59.91601562 C54.92467773 58.37977539 54.92467773 58.37977539 54.9375 56.8125 C54.94201172 55.77673828 54.94652344 54.74097656 54.95117188 53.67382812 C54.9629599 51.11582734 54.97941485 48.55794267 55 46 C50.545 46.495 50.545 46.495 46 47 C46.495 47.495 46.99 47.99 47.5 48.5 C49.58979782 51.98299637 49.52732651 55.08899507 49 59 C47.34626087 64.42058937 44.910497 68.10480555 40 71 C37.1890701 71.44393858 35.01607379 71.61525831 32.23046875 71.5234375 C31.50886063 71.51873444 30.7872525 71.51403137 30.04377747 71.50918579 C27.75734935 71.48796884 25.47330124 71.43139193 23.1875 71.375 C21.63348534 71.35847999 20.07944595 71.34413525 18.52539062 71.33203125 C7.1962106 71.1962106 7.1962106 71.1962106 6 70 C5.90307305 68.26639757 5.86798541 66.52925734 5.859375 64.79296875 C5.84003906 63.73142578 5.82070312 62.66988281 5.80078125 61.57617188 C5.76710537 59.32895442 5.74871165 57.08145261 5.74609375 54.83398438 C5.72160156 53.76857422 5.69710938 52.70316406 5.671875 51.60546875 C5.6625293 50.62731201 5.65318359 49.64915527 5.64355469 48.64135742 C5.2508294 45.76337763 5.2508294 45.76337763 2.48852539 44.24829102 C-0.33610531 41.69634124 -0.3779243 41.29546076 -0.56762695 37.69042969 C-0.56683784 35.93404582 -0.5387318 34.17753432 -0.48828125 32.421875 C-0.48120651 31.4953009 -0.47413177 30.56872681 -0.46684265 29.61407471 C-0.43888371 26.65855715 -0.37614272 23.70494356 -0.3125 20.75 C-0.28741906 18.74481905 -0.26460553 16.73960837 -0.24414062 14.734375 C-0.18905204 9.82218457 -0.10276911 4.91141493 0 0 Z M17 48 C17 52.62 17 57.24 17 62 C20.3103125 62.061875 20.3103125 62.061875 23.6875 62.125 C24.92886719 62.14820313 26.17023437 62.17140625 27.44921875 62.1953125 C30.83709655 62.00896059 33.02229376 61.58000739 36 60 C37.50662097 56.98675805 37.17770373 54.31713623 37 51 C33.9896755 47.9896755 31.77096379 48.02180327 27.546875 47.90234375 C24.03125 47.93489583 20.515625 47.96744792 17 48 Z " fill="#FFFFFF" transform="translate(0,50)"/>
<path d="M0 0 C0.8273465 -0.0066568 1.65469299 -0.0133136 2.5071106 -0.02017212 C4.2571592 -0.03029468 6.00724637 -0.03498926 7.75732422 -0.03466797 C10.42871098 -0.03903536 13.09843747 -0.07534098 15.76953125 -0.11328125 C17.47134853 -0.11915076 19.17317364 -0.12311925 20.875 -0.125 C21.67098602 -0.13937103 22.46697205 -0.15374207 23.28707886 -0.16854858 C27.12864422 -0.13706161 29.16868938 0.10350852 32.56298828 2.06787109 C34.80479516 4.60087838 35.23592759 5.75654624 35.3828125 9.0859375 C35.45435547 10.28476562 35.45435547 10.28476562 35.52734375 11.5078125 C35.54152344 12.11109375 35.55570312 12.714375 35.5703125 13.3359375 C36.26592285 13.32022705 36.9615332 13.3045166 37.67822266 13.28833008 C40.85050221 13.22570887 44.02265135 13.18686073 47.1953125 13.1484375 C48.83693359 13.11073242 48.83693359 13.11073242 50.51171875 13.07226562 C60.67837591 12.97984147 60.67837591 12.97984147 65.5703125 16.3359375 C69.35021392 20.11583892 67.9841996 26.61055002 68.0078125 31.7109375 C68.04068359 32.95617188 68.07355469 34.20140625 68.10742188 35.484375 C68.11451172 36.680625 68.12160156 37.876875 68.12890625 39.109375 C68.14908813 40.75558838 68.14908813 40.75558838 68.16967773 42.43505859 C67.5703125 45.3359375 67.5703125 45.3359375 65.66748047 47.70068359 C61.22930951 50.04396509 57.4008601 49.83553293 52.45703125 49.7265625 C51.48748001 49.72090271 50.51792877 49.71524292 49.51899719 49.70941162 C46.43142704 49.68707456 43.34503011 49.63688248 40.2578125 49.5859375 C38.16082409 49.56586908 36.06381743 49.54761891 33.96679688 49.53125 C28.83418543 49.48721837 23.70244768 49.41820861 18.5703125 49.3359375 C18.5703125 48.0159375 18.5703125 46.6959375 18.5703125 45.3359375 C13.2903125 45.3359375 8.0103125 45.3359375 2.5703125 45.3359375 C2.5703125 46.6559375 2.5703125 47.9759375 2.5703125 49.3359375 C-3.46196815 49.41018447 -9.49398182 49.4645858 -15.52661133 49.50073242 C-17.57809076 49.51580372 -19.62953806 49.53626432 -21.6809082 49.56225586 C-24.63240498 49.59871174 -27.58347513 49.61568056 -30.53515625 49.62890625 C-31.90730537 49.65213203 -31.90730537 49.65213203 -33.30717468 49.67582703 C-38.19491001 49.67711408 -41.44372211 49.50198435 -45.4296875 46.3359375 C-48.15333788 43.61228712 -46.76352247 35.68525381 -46.8046875 32.0234375 C-46.84207031 30.77369141 -46.87945312 29.52394531 -46.91796875 28.23632812 C-46.92957031 27.03556641 -46.94117188 25.83480469 -46.953125 24.59765625 C-46.97294434 23.49381592 -46.99276367 22.38997559 -47.01318359 21.25268555 C-46.4296875 18.3359375 -46.4296875 18.3359375 -44.29663086 15.96899414 C-40.90549925 14.03735152 -38.91665038 13.87172967 -35.03515625 13.9453125 C-33.83310547 13.95820313 -32.63105469 13.97109375 -31.39257812 13.984375 C-30.14669922 14.01789062 -28.90082031 14.05140625 -27.6171875 14.0859375 C-26.35197266 14.10398437 -25.08675781 14.12203125 -23.78320312 14.140625 C-20.66459415 14.18769834 -17.54752777 14.25344656 -14.4296875 14.3359375 C-14.45675781 13.23894531 -14.48382812 12.14195313 -14.51171875 11.01171875 C-14.42269682 7.02268846 -13.8323373 5.45048354 -11.4296875 2.3359375 C-7.60278524 -0.21533067 -4.43942014 0.0123502 0 0 Z M-3.4296875 11.3359375 C-3.4296875 12.3259375 -3.4296875 13.3159375 -3.4296875 14.3359375 C5.8103125 14.3359375 15.0503125 14.3359375 24.5703125 14.3359375 C24.5703125 13.3459375 24.5703125 12.3559375 24.5703125 11.3359375 C15.3303125 11.3359375 6.0903125 11.3359375 -3.4296875 11.3359375 Z " fill="#FFFFFF" transform="translate(46.4296875,-0.3359375)"/>
<path d="M0 0 C0.969375 0.12375 1.93875 0.2475 2.9375 0.375 C5.07116207 3.5754931 5.18930158 4.39862738 5.19628906 8.07421875 C5.20259338 9.02530518 5.20889771 9.9763916 5.21539307 10.95629883 C5.2113446 11.98134521 5.20729614 13.0063916 5.203125 14.0625 C5.20599518 15.64357544 5.20599518 15.64357544 5.20892334 17.2565918 C5.21028475 19.48584227 5.20659138 21.71510068 5.19824219 23.94433594 C5.18754224 27.36150884 5.19813916 30.778156 5.2109375 34.1953125 C5.2096159 36.35937616 5.20705349 38.5234395 5.203125 40.6875 C5.20717346 41.71254639 5.21122192 42.73759277 5.21539307 43.79370117 C5.20908875 44.7447876 5.20278442 45.69587402 5.19628906 46.67578125 C5.19469788 47.51278564 5.19310669 48.34979004 5.19146729 49.2121582 C4.9375 51.375 4.9375 51.375 2.9375 54.375 C-0.5625 54.6875 -0.5625 54.6875 -4.0625 54.375 C-6.0625 52.375 -6.0625 52.375 -6.28955078 50.03662109 C-6.27907715 49.08352051 -6.26860352 48.13041992 -6.2578125 47.1484375 C-6.25136719 46.1171875 -6.24492188 45.0859375 -6.23828125 44.0234375 C-6.22152344 42.94320312 -6.20476562 41.86296875 -6.1875 40.75 C-6.17847656 39.66203125 -6.16945312 38.5740625 -6.16015625 37.453125 C-6.13653409 34.76019848 -6.10359556 32.06770745 -6.0625 29.375 C-11.0800843 30.34538664 -11.0800843 30.34538664 -14.83984375 33.5390625 C-15.41412109 34.75722656 -15.41412109 34.75722656 -16 36 C-16.40089844 36.81726563 -16.80179688 37.63453125 -17.21484375 38.4765625 C-17.63443359 39.41628906 -17.63443359 39.41628906 -18.0625 40.375 C-23.18036973 41.25739133 -23.18036973 41.25739133 -26.0625 40.375 C-27.92089787 37.91612924 -29.17490337 35.46531429 -30.4453125 32.66015625 C-31.92663847 30.04442256 -31.92663847 30.04442256 -35.2421875 29.55859375 C-36.63824219 29.46771484 -36.63824219 29.46771484 -38.0625 29.375 C-38.05202637 30.06126465 -38.04155273 30.7475293 -38.03076172 31.45458984 C-37.98928126 34.55302289 -37.96319931 37.65139761 -37.9375 40.75 C-37.92074219 41.83023438 -37.90398437 42.91046875 -37.88671875 44.0234375 C-37.88027344 45.0546875 -37.87382813 46.0859375 -37.8671875 47.1484375 C-37.85671387 48.10153809 -37.84624023 49.05463867 -37.83544922 50.03662109 C-38.0625 52.375 -38.0625 52.375 -40.0625 54.375 C-43.6875 54.5 -43.6875 54.5 -47.0625 54.375 C-48.01345456 51.52213632 -48.19398989 49.72786796 -48.20776367 46.76757812 C-48.21414352 45.83651245 -48.22052338 44.90544678 -48.22709656 43.94616699 C-48.22820938 42.94299438 -48.2293222 41.93982178 -48.23046875 40.90625 C-48.23379715 39.87439575 -48.23712555 38.8425415 -48.24055481 37.77941895 C-48.24561853 35.59725389 -48.24796331 33.41508108 -48.24780273 31.23291016 C-48.24999135 27.88821738 -48.26815891 24.54385325 -48.28710938 21.19921875 C-48.29004293 19.0807303 -48.29202798 16.96224027 -48.29296875 14.84375 C-48.30015427 13.84057739 -48.30733978 12.83740479 -48.31474304 11.80383301 C-48.31166641 10.87276733 -48.30858978 9.94170166 -48.30541992 8.98242188 C-48.30684494 8.16318237 -48.30826996 7.34394287 -48.30973816 6.49987793 C-48.0625 4.375 -48.0625 4.375 -46.0625 1.375 C-42.875 0.625 -42.875 0.625 -39.0625 1.375 C-32.20364276 7.38241289 -27.40378721 17.41105136 -23.0625 25.375 C-23.0625 26.035 -23.0625 26.695 -23.0625 27.375 C-22.4025 27.375 -21.7425 27.375 -21.0625 27.375 C-20.79300537 26.64361816 -20.52351074 25.91223633 -20.24584961 25.15869141 C-19.09545293 22.45251791 -17.78907544 20.25568668 -16.12890625 17.8359375 C-15.2790918 16.59457031 -15.2790918 16.59457031 -14.41210938 15.328125 C-13.52749023 14.05195312 -13.52749023 14.05195312 -12.625 12.75 C-12.03912109 11.89148438 -11.45324219 11.03296875 -10.84960938 10.1484375 C-4.22031552 0.51677333 -4.22031552 0.51677333 0 0 Z " fill="#000000" transform="translate(103.0625,66.625)"/>
<path d="M0 0 C0.93908203 -0.00064453 1.87816406 -0.00128906 2.84570312 -0.00195312 C4.3084668 0.02801758 4.3084668 0.02801758 5.80078125 0.05859375 C7.23454102 0.04795898 7.23454102 0.04795898 8.69726562 0.03710938 C15.45801454 0.09702058 23.09304141 0.47585391 28.11328125 5.49609375 C30.17746461 9.62446046 30.42356127 12.9194634 30.11328125 17.49609375 C29.12905979 19.50390552 28.13094052 21.50502127 27.11328125 23.49609375 C27.38174514 25.91226876 28.0310787 27.33168865 29.11328125 29.49609375 C16.57328125 29.49609375 4.03328125 29.49609375 -8.88671875 29.49609375 C-8.96921875 25.45359375 -9.05171875 21.41109375 -9.13671875 17.24609375 C-9.17313477 15.97733398 -9.20955078 14.70857422 -9.24707031 13.40136719 C-9.25706055 12.3962207 -9.26705078 11.39107422 -9.27734375 10.35546875 C-9.29829102 9.32905273 -9.31923828 8.30263672 -9.34082031 7.24511719 C-8.44520674 1.82328449 -5.23218067 -0.0114949 0 0 Z " fill="#000000" transform="translate(14.88671875,66.50390625)"/>
<path d="M0 0 C3.63 0 7.26 0 11 0 C11.05384114 3.60436513 11.0935974 7.20792978 11.125 10.8125 C11.14175781 11.83666016 11.15851563 12.86082031 11.17578125 13.91601562 C11.18222656 14.89892578 11.18867187 15.88183594 11.1953125 16.89453125 C11.20578613 17.80050049 11.21625977 18.70646973 11.22705078 19.63989258 C11 22 11 22 9 25 C5.5 25.3125 5.5 25.3125 2 25 C0 23 0 23 -0.22705078 20.66162109 C-0.21657715 19.70852051 -0.20610352 18.75541992 -0.1953125 17.7734375 C-0.18886719 16.7421875 -0.18242188 15.7109375 -0.17578125 14.6484375 C-0.15902344 13.56820312 -0.14226562 12.48796875 -0.125 11.375 C-0.11597656 10.28703125 -0.10695313 9.1990625 -0.09765625 8.078125 C-0.07403518 5.38532351 -0.03816333 2.69263465 0 0 Z " fill="#FFFFFF" transform="translate(97,96)"/>
<path d="M0 0 C3.3 0 6.6 0 10 0 C10.05374281 3.79185383 10.09354937 7.58295298 10.125 11.375 C10.14175781 12.45523438 10.15851563 13.53546875 10.17578125 14.6484375 C10.18222656 15.6796875 10.18867187 16.7109375 10.1953125 17.7734375 C10.20578613 18.72653809 10.21625977 19.67963867 10.22705078 20.66162109 C10 23 10 23 8 25 C4.375 25.125 4.375 25.125 1 25 C-0.00005304 21.99984088 -0.11575585 20.02576244 -0.09765625 16.89453125 C-0.09443359 15.91162109 -0.09121094 14.92871094 -0.08789062 13.91601562 C-0.07951172 12.89185547 -0.07113281 11.86769531 -0.0625 10.8125 C-0.05798828 9.77673828 -0.05347656 8.74097656 -0.04882812 7.67382812 C-0.03704026 5.1158608 -0.01910482 2.55792314 0 0 Z " fill="#FFFFFF" transform="translate(55,96)"/>
<path d="M0 0 C0.94746094 -0.02578125 1.89492188 -0.0515625 2.87109375 -0.078125 C6.01432788 0.30508497 7.35660431 0.99771865 9.5625 3.25 C10.08488806 9.20522388 10.08488806 9.20522388 8.5625 12.25 C2.9525 12.25 -2.6575 12.25 -8.4375 12.25 C-8.4375 8.62 -8.4375 4.99 -8.4375 1.25 C-5.40443887 0.23897962 -3.17809761 0.0517465 0 0 Z " fill="#FFFFFF" transform="translate(25.4375,75.75)"/>
<path d="M0 0 C6.27 0 12.54 0 19 0 C17.02 3.63 15.04 7.26 13 11 C7.84386037 11.69913758 7.84386037 11.69913758 5 11 C1.86503259 7.80546076 0 4.48989894 0 0 Z " fill="#FFFFFF" transform="translate(72,96)"/>
<path d="M0 0 C3.53586014 3.17320782 5.58578031 5.16743695 6 10 C3.03 9.505 3.03 9.505 0 9 C0 6.03 0 3.06 0 0 Z " fill="#F7F7F7" transform="translate(65,87)"/>
<path d="M0 0 C0.66 0 1.32 0 2 0 C2 2.97 2 5.94 2 9 C0.02 9 -1.96 9 -4 9 C-2.80100302 5.9168649 -1.52299523 2.93720508 0 0 Z " fill="#FFFFFF" transform="translate(95,87)"/>
</svg>
