<?xml version="1.0" encoding="UTF-8"?>
<svg version="1.1" xmlns="http://www.w3.org/2000/svg" width="114" height="121">
<path d="M0 0 C0.8273465 -0.0066568 1.65469299 -0.0133136 2.5071106 -0.02017212 C4.2571592 -0.03029468 6.00724637 -0.03498926 7.75732422 -0.03466797 C10.42871098 -0.03903536 13.09843747 -0.07534098 15.76953125 -0.11328125 C17.47134853 -0.11915076 19.17317364 -0.12311925 20.875 -0.125 C21.67098602 -0.13937103 22.46697205 -0.15374207 23.28707886 -0.16854858 C27.12864422 -0.13706161 29.16868938 0.10350852 32.56298828 2.06787109 C34.80479516 4.60087838 35.23592759 5.75654624 35.3828125 9.0859375 C35.45435547 10.28476562 35.45435547 10.28476562 35.52734375 11.5078125 C35.54152344 12.11109375 35.55570312 12.714375 35.5703125 13.3359375 C36.26592285 13.32022705 36.9615332 13.3045166 37.67822266 13.28833008 C40.85050221 13.22570887 44.02265135 13.18686073 47.1953125 13.1484375 C48.83693359 13.11073242 48.83693359 13.11073242 50.51171875 13.07226562 C60.67837591 12.97984147 60.67837591 12.97984147 65.5703125 16.3359375 C69.35021392 20.11583892 67.9841996 26.61055002 68.0078125 31.7109375 C68.04068359 32.95617188 68.07355469 34.20140625 68.10742188 35.484375 C68.11451172 36.680625 68.12160156 37.876875 68.12890625 39.109375 C68.14908813 40.75558838 68.14908813 40.75558838 68.16967773 42.43505859 C67.5703125 45.3359375 67.5703125 45.3359375 65.66748047 47.70068359 C61.22930951 50.04396509 57.4008601 49.83553293 52.45703125 49.7265625 C51.48748001 49.72090271 50.51792877 49.71524292 49.51899719 49.70941162 C46.43142704 49.68707456 43.34503011 49.63688248 40.2578125 49.5859375 C38.16082409 49.56586908 36.06381743 49.54761891 33.96679688 49.53125 C28.83418543 49.48721837 23.70244768 49.41820861 18.5703125 49.3359375 C18.5703125 48.0159375 18.5703125 46.6959375 18.5703125 45.3359375 C13.2903125 45.3359375 8.0103125 45.3359375 2.5703125 45.3359375 C2.5703125 46.6559375 2.5703125 47.9759375 2.5703125 49.3359375 C-3.46196815 49.41018447 -9.49398182 49.4645858 -15.52661133 49.50073242 C-17.57809076 49.51580372 -19.62953806 49.53626432 -21.6809082 49.56225586 C-24.63240498 49.59871174 -27.58347513 49.61568056 -30.53515625 49.62890625 C-31.90730537 49.65213203 -31.90730537 49.65213203 -33.30717468 49.67582703 C-38.19491001 49.67711408 -41.44372211 49.50198435 -45.4296875 46.3359375 C-48.15333788 43.61228712 -46.76352247 35.68525381 -46.8046875 32.0234375 C-46.84207031 30.77369141 -46.87945312 29.52394531 -46.91796875 28.23632812 C-46.92957031 27.03556641 -46.94117188 25.83480469 -46.953125 24.59765625 C-46.97294434 23.49381592 -46.99276367 22.38997559 -47.01318359 21.25268555 C-46.4296875 18.3359375 -46.4296875 18.3359375 -44.29663086 15.96899414 C-40.90549925 14.03735152 -38.91665038 13.87172967 -35.03515625 13.9453125 C-33.83310547 13.95820313 -32.63105469 13.97109375 -31.39257812 13.984375 C-30.14669922 14.01789062 -28.90082031 14.05140625 -27.6171875 14.0859375 C-26.35197266 14.10398437 -25.08675781 14.12203125 -23.78320312 14.140625 C-20.66459415 14.18769834 -17.54752777 14.25344656 -14.4296875 14.3359375 C-14.45675781 13.23894531 -14.48382812 12.14195313 -14.51171875 11.01171875 C-14.42269682 7.02268846 -13.8323373 5.45048354 -11.4296875 2.3359375 C-7.60278524 -0.21533067 -4.43942014 0.0123502 0 0 Z M-3.4296875 11.3359375 C-3.4296875 12.3259375 -3.4296875 13.3159375 -3.4296875 14.3359375 C5.8103125 14.3359375 15.0503125 14.3359375 24.5703125 14.3359375 C24.5703125 13.3459375 24.5703125 12.3559375 24.5703125 11.3359375 C15.3303125 11.3359375 6.0903125 11.3359375 -3.4296875 11.3359375 Z " fill="#FFFFFF" transform="translate(46.4296875,-0.3359375)"/>
<path d="M0 0 C6.15234375 -0.09765625 6.15234375 -0.09765625 8 0 C8.33 0.33 8.66 0.66 9 1 C11.95529504 1.16029688 14.88982457 1.25957328 17.84765625 1.31640625 C19.17729652 1.3475779 19.17729652 1.3475779 20.53379822 1.37937927 C23.376617 1.444974 26.21953117 1.50380552 29.0625 1.5625 C30.98503606 1.6056758 32.90756234 1.64928978 34.83007812 1.69335938 C39.55328668 1.80066543 44.27659153 1.90190451 49 2 C49 4.97 49 7.94 49 11 C54.28 11 59.56 11 65 11 C65 8.03 65 5.06 65 2 C66.17095215 1.97494385 67.3419043 1.9498877 68.54833984 1.92407227 C72.88325378 1.83006297 77.21800504 1.72982659 81.55273438 1.62768555 C83.43062542 1.58431211 85.30855652 1.54263882 87.18652344 1.50268555 C89.8822844 1.44504124 92.57784327 1.38133019 95.2734375 1.31640625 C96.11619232 1.29969376 96.95894714 1.28298126 97.82723999 1.26576233 C102.0486661 1.26763856 102.0486661 1.26763856 106 0 C108.6723621 -0.13415472 111.32250488 -0.04318541 114 0 C114.09890033 5.90815343 114.17148371 11.81582472 114.21972656 17.72460938 C114.23983805 19.73446038 114.26713115 21.74425291 114.30175781 23.75390625 C114.35029634 26.64337596 114.37297322 29.53207191 114.390625 32.421875 C114.41127014 33.31992859 114.43191528 34.21798218 114.45318604 35.14324951 C114.45542659 41.37692023 114.45542659 41.37692023 112.10058594 44.59863281 C110 46 110 46 108 46 C107.97494385 45.22285645 107.9498877 44.44571289 107.92407227 43.64501953 C107.80833204 40.13816931 107.68550648 36.63160255 107.5625 33.125 C107.52318359 31.90167969 107.48386719 30.67835937 107.44335938 29.41796875 C107.40146484 28.25136719 107.35957031 27.08476563 107.31640625 25.8828125 C107.27974854 24.80402832 107.24309082 23.72524414 107.20532227 22.61376953 C107.16623357 20.01930464 107.16623357 20.01930464 106 18 C103.30197711 17.24241756 103.30197711 17.24241756 100 18 C95.87870692 21.69071022 93.14385265 26.7620281 90.1796875 31.3828125 C89.68621826 32.15181885 89.19274902 32.9208252 88.68432617 33.71313477 C87.69066631 35.27274802 86.70633731 36.8383476 85.73168945 38.40991211 C85.27753662 39.13186768 84.82338379 39.85382324 84.35546875 40.59765625 C83.94965576 41.25258057 83.54384277 41.90750488 83.12573242 42.58227539 C82.56849487 43.28404907 82.56849487 43.28404907 82 44 C81.34 44 80.68 44 80 44 C78.5546875 41.796875 78.5546875 41.796875 76.875 38.75 C71.24979702 28.26050243 71.24979702 28.26050243 64 19 C61.66702567 18.95907063 59.33294775 18.95758277 57 19 C55.68638302 21.62723396 55.78746091 23.72610561 55.68359375 26.6640625 C55.62075195 28.34628906 55.62075195 28.34628906 55.55664062 30.0625 C55.51732422 31.238125 55.47800781 32.41375 55.4375 33.625 C55.37272461 35.40003906 55.37272461 35.40003906 55.30664062 37.2109375 C55.20032574 40.14050328 55.09829358 43.07015588 55 46 C50.545 46.495 50.545 46.495 46 47 C46.495 47.495 46.99 47.99 47.5 48.5 C49.58979782 51.98299637 49.52732651 55.08899507 49 59 C47.34626087 64.42058937 44.910497 68.10480555 40 71 C37.1890701 71.44393858 35.01607379 71.61525831 32.23046875 71.5234375 C31.50886063 71.51873444 30.7872525 71.51403137 30.04377747 71.50918579 C27.75734935 71.48796884 25.47330124 71.43139193 23.1875 71.375 C21.63348534 71.35847999 20.07944595 71.34413525 18.52539062 71.33203125 C7.1962106 71.1962106 7.1962106 71.1962106 6 70 C5.90307305 68.26639757 5.86798541 66.52925734 5.859375 64.79296875 C5.84003906 63.73142578 5.82070312 62.66988281 5.80078125 61.57617188 C5.76710537 59.32895442 5.74871165 57.08145261 5.74609375 54.83398438 C5.72160156 53.76857422 5.69710938 52.70316406 5.671875 51.60546875 C5.6625293 50.62731201 5.65318359 49.64915527 5.64355469 48.64135742 C5.2508294 45.76337763 5.2508294 45.76337763 2.48852539 44.24829102 C-0.33610531 41.69634124 -0.3779243 41.29546076 -0.56762695 37.69042969 C-0.56683784 35.93404582 -0.5387318 34.17753432 -0.48828125 32.421875 C-0.48120651 31.4953009 -0.47413177 30.56872681 -0.46684265 29.61407471 C-0.43888371 26.65855715 -0.37614272 23.70494356 -0.3125 20.75 C-0.28741906 18.74481905 -0.26460553 16.73960837 -0.24414062 14.734375 C-0.18905204 9.82218457 -0.10276911 4.91141493 0 0 Z M6 21 C5.45191925 23.79630804 5.45191925 23.79630804 5.609375 26.859375 C5.61936523 27.86452148 5.62935547 28.86966797 5.63964844 29.90527344 C5.67606445 31.1740332 5.71248047 32.44279297 5.75 33.75 C5.8325 37.7925 5.915 41.835 6 46 C18.54 46 31.08 46 44 46 C43.34 45.01 42.68 44.02 42 43 C42.31334859 40.64988556 43.07223388 38.84278509 44.0625 36.6875 C45.67510455 32.06470028 45.46767599 28.35106398 43.875 23.75 C40.93156509 19.43296213 36.96780665 18.03020347 32 17 C28.33672839 16.73096921 24.67211714 16.72308253 21 16.6875 C20.00226562 16.65849609 19.00453125 16.62949219 17.9765625 16.59960938 C16.53410156 16.58704102 16.53410156 16.58704102 15.0625 16.57421875 C14.18722656 16.55963623 13.31195312 16.54505371 12.41015625 16.5300293 C9.10957243 17.17362977 7.96980502 18.3017951 6 21 Z M17 48 C17 52.62 17 57.24 17 62 C20.3103125 62.061875 20.3103125 62.061875 23.6875 62.125 C24.92886719 62.14820313 26.17023437 62.17140625 27.44921875 62.1953125 C30.83709655 62.00896059 33.02229376 61.58000739 36 60 C37.50662097 56.98675805 37.17770373 54.31713623 37 51 C33.9896755 47.9896755 31.77096379 48.02180327 27.546875 47.90234375 C24.03125 47.93489583 20.515625 47.96744792 17 48 Z " fill="#FFFFFF" transform="translate(0,50)"/>
<path d="M0 0 C3.63 0 7.26 0 11 0 C11.05384114 3.60436513 11.0935974 7.20792978 11.125 10.8125 C11.14175781 11.83666016 11.15851563 12.86082031 11.17578125 13.91601562 C11.18222656 14.89892578 11.18867187 15.88183594 11.1953125 16.89453125 C11.20578613 17.80050049 11.21625977 18.70646973 11.22705078 19.63989258 C11 22 11 22 9 25 C5.5 25.3125 5.5 25.3125 2 25 C0 23 0 23 -0.22705078 20.66162109 C-0.21657715 19.70852051 -0.20610352 18.75541992 -0.1953125 17.7734375 C-0.18886719 16.7421875 -0.18242188 15.7109375 -0.17578125 14.6484375 C-0.15902344 13.56820312 -0.14226562 12.48796875 -0.125 11.375 C-0.11597656 10.28703125 -0.10695313 9.1990625 -0.09765625 8.078125 C-0.07403518 5.38532351 -0.03816333 2.69263465 0 0 Z " fill="#FFFFFF" transform="translate(97,96)"/>
<path d="M0 0 C3.3 0 6.6 0 10 0 C10.05374281 3.79185383 10.09354937 7.58295298 10.125 11.375 C10.14175781 12.45523438 10.15851563 13.53546875 10.17578125 14.6484375 C10.18222656 15.6796875 10.18867187 16.7109375 10.1953125 17.7734375 C10.20578613 18.72653809 10.21625977 19.67963867 10.22705078 20.66162109 C10 23 10 23 8 25 C4.375 25.125 4.375 25.125 1 25 C-0.00005304 21.99984088 -0.11575585 20.02576244 -0.09765625 16.89453125 C-0.09443359 15.91162109 -0.09121094 14.92871094 -0.08789062 13.91601562 C-0.07951172 12.89185547 -0.07113281 11.86769531 -0.0625 10.8125 C-0.05798828 9.77673828 -0.05347656 8.74097656 -0.04882812 7.67382812 C-0.03704026 5.1158608 -0.01910482 2.55792314 0 0 Z " fill="#FFFFFF" transform="translate(55,96)"/>
<path d="M0 0 C0.94746094 -0.02578125 1.89492188 -0.0515625 2.87109375 -0.078125 C6.01432788 0.30508497 7.35660431 0.99771865 9.5625 3.25 C10.08488806 9.20522388 10.08488806 9.20522388 8.5625 12.25 C2.9525 12.25 -2.6575 12.25 -8.4375 12.25 C-8.4375 8.62 -8.4375 4.99 -8.4375 1.25 C-5.40443887 0.23897962 -3.17809761 0.0517465 0 0 Z " fill="#FFFFFF" transform="translate(25.4375,75.75)"/>
<path d="M0 0 C2.64752004 2.57784846 4.94432065 4.91648098 7 8 C9.02276681 8.50621513 9.02276681 8.50621513 11.3515625 8.51171875 C12.20234375 8.54716797 13.053125 8.58261719 13.9296875 8.61914062 C14.81914063 8.64169922 15.70859375 8.66425781 16.625 8.6875 C17.97078125 8.73874023 17.97078125 8.73874023 19.34375 8.79101562 C21.56205613 8.87361213 23.78100936 8.93847923 26 9 C24.02 12.63 22.04 16.26 20 20 C14.8301455 20.70099722 14.8301455 20.70099722 12 20 C9.36841056 17.26214685 7 13.89044106 7 10 C4.69 9.67 2.38 9.34 0 9 C0 6.03 0 3.06 0 0 Z " fill="#FFFFFF" transform="translate(65,87)"/>
<path d="M0 0 C0.66 0 1.32 0 2 0 C2 2.97 2 5.94 2 9 C0.02 9 -1.96 9 -4 9 C-2.80100302 5.9168649 -1.52299523 2.93720508 0 0 Z " fill="#FFFFFF" transform="translate(95,87)"/>
</svg>
